<?xml version="1.0" encoding="utf-8"?>
<!-- Generator: Adobe Illustrator 26.0.2, SVG Export Plug-In . SVG Version: 6.00 Build 0)  -->
<svg version="1.1" id="Layer_1" xmlns="http://www.w3.org/2000/svg" xmlns:xlink="http://www.w3.org/1999/xlink" x="0px" y="0px"
	 viewBox="0 0 199 199" style="enable-background:new 0 0 199 199;" xml:space="preserve">
<style type="text/css">
	.st0{fill:#EE3624;}
</style>
<g>
	<path class="st0" d="M92.1,4.1c-30.3,3.3-53.5,26-57.6,56.1c-1.7,12.4,0.1,24.4,4.5,34.8l44.6,85.9c6.7,12.9,25.1,12.9,31.8,0
		l44.8-86.3c3.2-7.7,5-16.2,5-25.1C165.3,30.6,131.7-0.3,92.1,4.1z M140.3,76.7c-0.3,3.4-1,6.6-2.1,9.5c-1.4,4.1-3.4,7.7-6,10.9
		c-2.5,3.2-5.5,5.8-8.9,8c-3.4,2.2-7.1,3.7-11.2,4.9c-4,1.1-8.3,1.7-12.8,1.7c-6.1,0-11.8-1-16.8-3c-5.1-2.1-9.4-4.9-13-8.6
		c-3.6-3.6-6.5-8.1-8.5-13.2c-2.1-5.2-3-10.8-3-17c0-6.1,1-11.8,3-16.9s4.9-9.5,8.5-13.1c3.6-3.6,8.1-6.4,13.2-8.5s10.9-3,17.2-3
		c8.3,0,15.5,1.8,21.7,5.4c6.2,3.5,11.2,9.1,14.8,16.5l-19.4,8.1c-1.9-4.3-4.1-7.4-7-9.3c-2.9-1.9-6.2-2.8-9.9-2.8
		c-3.1,0-5.9,0.6-8.4,1.8c-2.5,1.1-4.6,2.8-6.4,5s-3.2,4.6-4.2,7.6c-1,3-1.5,6.3-1.5,10c0,3.3,0.4,6.4,1.3,9.3
		c0.8,2.9,2.2,5.4,3.9,7.4s3.9,3.7,6.5,4.9s5.6,1.8,9,1.8c2.1,0,3.9-0.2,5.9-0.7c1.9-0.4,3.6-1.1,5.1-2.2c1.5-1,2.8-2.3,3.7-3.9
		c0.9-1.7,1.7-3.5,2-5.9h-16.8V65.3h40.7C140.8,69.4,140.7,73.3,140.3,76.7z"/>
</g>
</svg>
