<?xml version="1.0" encoding="utf-8"?>
<!-- Generator: Adobe Illustrator 26.0.2, SVG Export Plug-In . SVG Version: 6.00 Build 0)  -->
<svg version="1.1" id="Layer_1" xmlns="http://www.w3.org/2000/svg" xmlns:xlink="http://www.w3.org/1999/xlink" x="0px" y="0px"
	 viewBox="0 0 764.4 212.5" style="enable-background:new 0 0 764.4 212.5;" xml:space="preserve">
<style type="text/css">
	.st0{fill:#916F5D;}
	.st1{fill:#453028;}
	.st2{fill:#EE3624;}
</style>
<g>
	<g>
		<g>
			<path class="st0" d="M35.5,102.6c-7.1,0-13.3-1.6-18.6-4.8c-5.3-3.2-9.5-7.6-12.4-13.2c-3-5.6-4.4-12-4.4-19.2
				c0-7.2,1.5-13.6,4.5-19.2c3-5.6,7.2-10,12.5-13.2c5.3-3.2,11.4-4.8,18.4-4.8c7.9,0,14.6,1.9,20.2,5.7c5.6,3.8,9.3,9.1,11.2,16
				H52.4c-1.2-2.7-3.2-4.9-6.1-6.6c-2.9-1.7-6.6-2.6-10.9-2.6c-4.2,0-7.9,1-11.1,3s-5.7,4.9-7.5,8.5c-1.8,3.7-2.7,8.1-2.7,13.2
				c0,5,0.9,9.3,2.7,13c1.8,3.7,4.3,6.6,7.6,8.6c3.3,2,7.1,3.1,11.6,3.1c3.7,0,6.9-0.7,9.7-2.1c2.8-1.4,4.9-3.4,6.5-5.8
				c1.6-2.5,2.4-5.2,2.4-8.2v-1.1h-19V61h32.7v9.9c0,6-1.3,11.4-3.9,16.2c-2.6,4.8-6.4,8.6-11.2,11.3
				C48.1,101.2,42.3,102.6,35.5,102.6z"/>
			<path class="st0" d="M78.6,100.9V29.8h29c8.7,0,15.5,2.1,20.4,6.2c4.9,4.2,7.3,9.8,7.3,16.9c0,5.1-1.3,9.5-3.9,13.1
				c-2.6,3.6-6.1,6.3-10.5,8.1l17.6,26.9h-16.2l-15.6-24.6H92.5v24.6H78.6z M92.5,64.2h13.3c5.3,0,9.2-1,11.7-2.9
				c2.5-1.9,3.7-4.8,3.7-8.5c0-3.8-1.2-6.6-3.7-8.3s-6.4-2.6-11.7-2.6H92.5V64.2z"/>
			<path class="st0" d="M179.4,102.6c-5.3,0-10.1-0.9-14.5-2.8c-4.4-1.8-8.2-4.4-11.4-7.8c-3.2-3.3-5.7-7.3-7.5-11.8
				c-1.8-4.5-2.7-9.5-2.7-14.9c0-5.4,0.9-10.3,2.7-14.9c1.8-4.5,4.3-8.5,7.5-11.8c3.2-3.3,7-5.9,11.4-7.8c4.4-1.8,9.2-2.8,14.5-2.8
				c5.2,0,10.1,0.9,14.5,2.8c4.4,1.8,8.2,4.4,11.4,7.8c3.2,3.3,5.7,7.3,7.5,11.8c1.8,4.5,2.7,9.5,2.7,14.9c0,5.4-0.9,10.3-2.7,14.9
				c-1.8,4.5-4.3,8.5-7.5,11.8c-3.2,3.3-7.1,5.9-11.4,7.8C189.5,101.6,184.7,102.6,179.4,102.6z M179.4,90.1c4.3,0,8.1-1,11.4-3.1
				c3.3-2.1,5.9-5,7.8-8.7c1.9-3.7,2.8-8,2.8-12.9c0-4.9-0.9-9.2-2.8-12.9c-1.9-3.7-4.5-6.6-7.8-8.7c-3.3-2.1-7.1-3.1-11.4-3.1
				c-4.2,0-8,1-11.3,3.1c-3.3,2.1-5.9,5-7.8,8.7c-1.9,3.7-2.8,8-2.8,12.9c0,4.8,0.9,9.1,2.8,12.9c1.9,3.7,4.5,6.7,7.8,8.7
				C171.4,89.1,175.2,90.1,179.4,90.1z"/>
			<path class="st0" d="M257.8,102.6c-6.7,0-12.4-1.3-17-4c-4.6-2.7-8.1-6.4-10.4-11.2c-2.4-4.8-3.5-10.5-3.5-17.1V29.8h13.9v38.8
				c0,6.6,1.3,11.8,4,15.7c2.7,3.9,7,5.8,13,5.8c6.1,0,10.4-1.9,13.1-5.8c2.7-3.8,4-9.1,4-15.7V29.8h13.9v40.5
				c0,6.5-1.2,12.2-3.5,17.1c-2.4,4.8-5.8,8.6-10.4,11.2C270.2,101.2,264.6,102.6,257.8,102.6z"/>
			<path class="st0" d="M299.8,100.9V29.8h13.5l35.3,49.9V29.8h13.5v71.2h-13.5L313.3,51v49.9H299.8z"/>
			<path class="st0" d="M378.3,100.9V29.8h26.9c7.1,0,13.3,1.5,18.7,4.4c5.4,2.9,9.5,7.1,12.6,12.4c3,5.3,4.6,11.6,4.6,18.8
				c0,7.2-1.5,13.5-4.6,18.8c-3,5.3-7.2,9.4-12.6,12.4c-5.3,2.9-11.6,4.4-18.7,4.4H378.3z M392.2,88.8h12.2c4.4,0,8.2-0.9,11.6-2.8
				c3.4-1.8,6-4.5,8-8c1.9-3.5,2.9-7.7,2.9-12.7c0-5-1-9.2-2.9-12.7c-1.9-3.5-4.6-6.1-8-8c-3.4-1.8-7.2-2.8-11.6-2.8h-12.2V88.8z"/>
			<path class="st0" d="M498.1,91.9V72.2h-18.4V61.3h18.4V41.5h11.3v19.7h18.4v10.9h-18.4v19.7H498.1z"/>
		</g>
		<g>
			<path class="st1" d="M7.5,179.1v-66.4h26.2c8.3,0,14.8,2,19.4,6.1c4.6,4.1,6.9,9.4,6.9,16.1c0,6.7-2.3,12.1-6.9,16.2
				c-4.6,4.1-11,6.1-19.4,6.1H20.5v21.8H7.5z M20.5,146H32c5.1,0,8.8-1,11.2-2.9c2.4-1.9,3.6-4.6,3.6-8.2s-1.2-6.3-3.6-8.2
				C40.8,125,37.1,124,32,124H20.5V146z"/>
			<path class="st1" d="M63.1,179.1v-66.4h27.1c8.1,0,14.5,1.9,19,5.8c4.5,3.9,6.8,9.1,6.8,15.7c0,4.8-1.2,8.8-3.7,12.2
				c-2.4,3.4-5.7,5.9-9.8,7.5l16.4,25.1h-15.1l-14.6-23H76.1v23H63.1z M76.1,144.9h12.4c5,0,8.6-0.9,10.9-2.7c2.3-1.8,3.5-4.5,3.5-8
				c0-3.6-1.2-6.2-3.5-7.8c-2.3-1.6-6-2.4-10.9-2.4H76.1V144.9z"/>
			<path class="st1" d="M152.6,180.7c-4.9,0-9.4-0.9-13.5-2.6c-4.1-1.7-7.6-4.1-10.6-7.3c-3-3.1-5.3-6.8-7-11
				c-1.7-4.2-2.5-8.9-2.5-13.9s0.8-9.7,2.5-13.9c1.7-4.2,4-7.9,7-11c3-3.1,6.5-5.5,10.6-7.3c4.1-1.7,8.6-2.6,13.5-2.6
				c4.9,0,9.4,0.9,13.5,2.6c4.1,1.7,7.7,4.1,10.7,7.3c3,3.1,5.4,6.8,7,11c1.7,4.2,2.5,8.9,2.5,13.9s-0.8,9.7-2.5,13.9
				c-1.7,4.2-4,7.9-7,11c-3,3.1-6.6,5.5-10.7,7.3C162,179.8,157.5,180.7,152.6,180.7z M152.6,169c4,0,7.6-1,10.6-2.9
				c3.1-1.9,5.5-4.7,7.3-8.2c1.7-3.5,2.6-7.5,2.6-12c0-4.6-0.9-8.6-2.6-12.1c-1.7-3.5-4.2-6.2-7.3-8.1s-6.6-2.9-10.6-2.9
				c-3.9,0-7.5,1-10.5,2.9c-3.1,1.9-5.5,4.6-7.3,8.1c-1.7,3.5-2.6,7.5-2.6,12.1c0,4.5,0.9,8.5,2.6,12c1.7,3.5,4.2,6.2,7.3,8.2
				C145.1,168.1,148.6,169,152.6,169z"/>
			<path class="st1" d="M190.2,179.1v-66.4h26.2c8.3,0,14.8,2,19.4,6.1c4.6,4.1,6.9,9.4,6.9,16.1c0,6.7-2.3,12.1-6.9,16.2
				c-4.6,4.1-11,6.1-19.4,6.1h-13.3v21.8H190.2z M203.1,146h11.5c5.1,0,8.8-1,11.2-2.9c2.4-1.9,3.6-4.6,3.6-8.2s-1.2-6.3-3.6-8.2
				c-2.4-1.9-6.1-2.8-11.2-2.8h-11.5V146z"/>
			<path class="st1" d="M245.8,179.1v-66.4h47.9v11.3h-34.9v15.5h33.8V151h-33.8v16.8h35.4v11.4H245.8z"/>
			<path class="st1" d="M299.5,179.1v-66.4h27.1c8.1,0,14.5,1.9,19,5.8c4.5,3.9,6.8,9.1,6.8,15.7c0,4.8-1.2,8.8-3.7,12.2
				c-2.4,3.4-5.7,5.9-9.8,7.5l16.4,25.1h-15.1l-14.6-23h-13.3v23H299.5z M312.4,144.9h12.4c5,0,8.6-0.9,10.9-2.7
				c2.3-1.8,3.5-4.5,3.5-8c0-3.6-1.2-6.2-3.5-7.8c-2.3-1.6-6-2.4-10.9-2.4h-12.4V144.9z"/>
			<path class="st1" d="M387.4,179.1h-13v-55h-22.1v-11.3h57.2v11.3h-22.1V179.1z"/>
			<path class="st1" d="M427.9,179.1h-13v-66.4h13V179.1z"/>
			<path class="st1" d="M433.4,179.1v-66.4h47.9v11.3h-34.9v15.5h33.8V151h-33.8v16.8h35.4v11.4H433.4z"/>
			<path class="st1" d="M512.6,180.7c-7.8,0-14.1-1.8-18.9-5.3c-4.9-3.6-8-8.5-9.5-14.9h13c0.8,2.7,2.6,4.8,5.3,6.4
				c2.7,1.6,6,2.4,10,2.4c3.8,0,6.9-0.7,9.3-2.1c2.4-1.4,3.7-3.5,3.7-6.2c0-1.7-0.4-3.1-1-4.2c-0.7-1.1-2-2.1-3.9-3
				c-1.9-0.9-4.7-1.6-8.3-2.1l-7.4-1.2c-6.2-1.1-10.8-3.1-13.9-6c-3.1-2.9-4.6-7.1-4.6-12.5c0-4.2,1.1-7.8,3.4-10.9
				c2.3-3.1,5.3-5.5,9.2-7.2c3.8-1.7,8.2-2.5,12.9-2.5c6.9,0,12.7,1.6,17.5,4.9c4.7,3.3,7.6,8.1,8.7,14.4h-13
				c-0.6-2.7-2.1-4.7-4.3-6c-2.3-1.3-5.2-2-8.7-2c-3.9,0-6.9,0.7-9.2,2.1c-2.2,1.4-3.3,3.4-3.3,6c0,2.3,0.8,4.1,2.5,5.3
				c1.7,1.3,5,2.3,10.1,3.2l7.2,1.1c13,2.1,19.6,8.6,19.6,19.4c0,4.5-1.1,8.3-3.3,11.4c-2.2,3.1-5.3,5.5-9.2,7.2
				S517.6,180.7,512.6,180.7z"/>
		</g>
	</g>
	<rect x="593.7" class="st1" width="2.3" height="212.5"/>
	<path class="st2" d="M693.5,14.3c-29.3,3.2-51.8,25.2-55.8,54.3c-1.6,12,0.1,23.6,4.4,33.7l43.2,83.2c6.5,12.5,24.3,12.5,30.8,0
		l43.4-83.6c3.1-7.5,4.8-15.7,4.8-24.3C764.4,40,731.9,10.1,693.5,14.3z M740.2,84.6c-0.3,3.3-1,6.4-2,9.2c-1.4,4-3.3,7.5-5.8,10.6
		c-2.4,3.1-5.3,5.6-8.6,7.7c-3.3,2.1-6.9,3.6-10.8,4.7c-3.9,1.1-8,1.6-12.4,1.6c-5.9,0-11.4-1-16.3-2.9c-4.9-2-9.1-4.7-12.6-8.3
		c-3.5-3.5-6.3-7.8-8.2-12.8c-2-5-2.9-10.5-2.9-16.5c0-5.9,1-11.4,2.9-16.4c1.9-5,4.7-9.2,8.2-12.7c3.5-3.5,7.8-6.2,12.8-8.2
		c5-2,10.6-2.9,16.7-2.9c8,0,15,1.7,21,5.2c6,3.4,10.8,8.8,14.3,16l-18.8,7.8c-1.8-4.2-4-7.2-6.8-9c-2.8-1.8-6-2.7-9.6-2.7
		c-3,0-5.7,0.6-8.1,1.7c-2.4,1.1-4.5,2.7-6.2,4.8c-1.7,2.1-3.1,4.5-4.1,7.4c-1,2.9-1.5,6.1-1.5,9.7c0,3.2,0.4,6.2,1.3,9
		c0.8,2.8,2.1,5.2,3.8,7.2c1.7,2,3.8,3.6,6.3,4.7c2.5,1.1,5.4,1.7,8.7,1.7c2,0,3.8-0.2,5.7-0.7c1.8-0.4,3.5-1.1,4.9-2.1
		c1.5-1,2.7-2.2,3.6-3.8c0.9-1.6,1.6-3.4,1.9-5.7h-16.3V73.6h39.4C740.7,77.6,740.6,81.3,740.2,84.6z"/>
</g>
</svg>
